<svg xmlns="http://www.w3.org/2000/svg" xmlns:xlink="http://www.w3.org/1999/xlink" width="300" zoomAndPan="magnify" viewBox="0 0 224.87999 74.999997" height="100" preserveAspectRatio="xMidYMid meet" version="1.0"><defs><g/><clipPath id="id1"><path d="M 102 9.878906 L 123 9.878906 L 123 65.347656 L 102 65.347656 Z M 102 9.878906 " clip-rule="nonzero"/></clipPath></defs><g clip-path="url(#id1)"><path fill="#d97904" d="M 112.304688 9.882812 C 111.671875 9.914062 111.703125 10.511719 111.664062 11.046875 C 111.34375 11.039062 111.117188 11.175781 111.03125 11.542969 C 110.050781 11.757812 110.589844 12.644531 111.066406 12.726562 C 111.429688 12.765625 111.070312 13.105469 111.199219 13.214844 C 111.285156 13.289062 111.53125 13.25 111.53125 13.25 L 111.382812 14.34375 C 111.175781 14.328125 110.996094 14.488281 110.988281 14.65625 C 110.980469 14.800781 111.203125 14.957031 111.292969 14.957031 L 111.304688 15.074219 C 111.175781 15.117188 111.03125 15.132812 110.882812 15.0625 C 110.777344 14.933594 110.675781 14.988281 110.574219 15.0625 L 110.34375 15.0625 C 110.003906 13.921875 108.460938 14.738281 108.390625 15.402344 C 108.328125 16.039062 109.828125 16.386719 110.160156 16.105469 C 110.242188 15.851562 110.359375 15.722656 110.511719 15.757812 C 110.628906 15.882812 110.757812 15.914062 110.921875 15.757812 C 111.070312 15.726562 111.1875 15.738281 111.265625 15.800781 L 111.242188 16.128906 C 110.996094 16.101562 110.859375 16.273438 110.855469 16.4375 C 110.851562 16.597656 111.101562 16.761719 111.210938 16.761719 L 111.136719 17.613281 C 111.015625 17.773438 110.824219 17.632812 110.660156 17.597656 C 110.539062 17.503906 110.496094 17.636719 110.414062 17.671875 C 110.351562 17.777344 110.289062 17.691406 110.226562 17.667969 C 109.246094 17.039062 108.078125 17.5 108.292969 18.082031 C 108.367188 19.09375 109.691406 18.640625 110.433594 18.277344 C 110.613281 18.476562 110.726562 18.34375 110.863281 18.332031 C 111.015625 18.269531 111.160156 18.261719 111.289062 18.410156 C 111.140625 22.636719 111.019531 26.875 110.863281 31.097656 C 104.210938 32.207031 103.679688 36.335938 105.136719 41.449219 C 105.226562 41.804688 105.160156 42.160156 105.015625 42.515625 C 104.890625 43.015625 105.199219 43.027344 105.4375 43.121094 C 108.839844 44.363281 107.378906 49.542969 105.242188 50.355469 C 104.769531 50.535156 103.644531 49.621094 103.886719 51.671875 C 104.003906 51.992188 103.847656 52.550781 103.589844 53.199219 C 100.367188 62.335938 105.933594 65.113281 110.871094 65.292969 L 110.871094 65.308594 C 111.347656 65.339844 111.84375 65.347656 112.363281 65.324219 C 112.882812 65.347656 113.378906 65.339844 113.859375 65.308594 L 113.859375 65.292969 C 118.792969 65.113281 124.355469 62.335938 121.136719 53.199219 C 120.878906 52.550781 120.722656 51.992188 120.835938 51.671875 C 121.082031 49.621094 119.953125 50.535156 119.484375 50.355469 C 117.347656 49.542969 115.886719 44.363281 119.289062 43.121094 C 119.527344 43.027344 119.835938 43.019531 119.710938 42.515625 C 119.566406 42.160156 119.5 41.804688 119.589844 41.449219 C 121.046875 36.335938 120.515625 32.207031 113.863281 31.097656 L 113.386719 18.308594 C 113.707031 18.183594 113.753906 18.011719 113.730469 17.808594 C 113.714844 17.679688 113.550781 17.566406 113.441406 17.554688 L 113.378906 16.804688 L 113.589844 16.804688 C 113.753906 16.925781 113.871094 16.863281 113.976562 16.769531 C 114.0625 16.757812 114.148438 16.742188 114.1875 16.832031 C 114.542969 17.835938 116.324219 17.472656 116.148438 16.441406 C 115.925781 15.132812 114.210938 15.890625 114.195312 16.15625 C 114.136719 16.222656 114.058594 16.199219 113.984375 16.183594 C 113.859375 16.121094 113.738281 16.042969 113.589844 16.140625 C 113.515625 16.183594 113.4375 16.171875 113.351562 16.09375 L 113.308594 15.703125 C 113.410156 15.722656 113.515625 15.378906 113.273438 15.144531 C 113.253906 15.125 113.316406 15.066406 113.316406 15.066406 C 113.429688 14.933594 113.800781 14.921875 113.855469 15.027344 C 114.585938 16.449219 115.761719 15.226562 115.773438 14.789062 C 115.8125 13.035156 113.886719 13.59375 113.925781 14.335938 C 113.933594 14.476562 113.769531 14.378906 113.703125 14.414062 C 113.273438 14.414062 113.34375 14.441406 113.136719 14.351562 L 113 13.261719 C 113.078125 13.164062 113.324219 13.320312 113.421875 13.214844 C 113.535156 13.101562 113.183594 12.796875 113.457031 12.734375 C 113.988281 12.660156 114.574219 11.726562 113.511719 11.5625 C 113.554688 11.191406 113.320312 11.0625 112.992188 11.019531 C 113.023438 10.289062 112.816406 9.878906 112.304688 9.882812 Z M 112.304688 9.882812 " fill-opacity="1" fill-rule="evenodd"/></g><g fill="#260101" fill-opacity="1"><g transform="translate(13.022283, 57.629844)"><g><path d="M 3.910156 0.222656 C 6.457031 0.199219 7.753906 -2.121094 9.003906 -5.230469 C 10.277344 -5.074219 11.507812 -4.894531 12.15625 -4.847656 C 11.730469 -3.171875 11.351562 -1.699219 11.152344 -0.359375 C 11.21875 0.15625 12.828125 0.179688 13.003906 -0.335938 C 13.160156 -1.742188 13.628906 -3.351562 13.964844 -4.894531 C 15.664062 -5.027344 17.472656 -5.699219 18.503906 -7.105469 C 18.792969 -7.507812 18.367188 -8.113281 18.011719 -7.730469 C 17.09375 -6.660156 15.6875 -6.191406 14.210938 -6.054688 C 14.570312 -7.464844 15.351562 -10.972656 15.640625 -13.183594 C 15.933594 -15.53125 13.71875 -16.179688 11.796875 -14.234375 C 10.347656 -12.714844 9.003906 -9.609375 7.777344 -6.613281 C 4.894531 -6.949219 2.011719 -5.632812 1.386719 -3.039062 C 0.9375 -1.207031 1.808594 0.222656 3.910156 0.222656 Z M 12.445312 -6.054688 C 11.796875 -6.078125 10.59375 -6.257812 9.496094 -6.414062 C 10.433594 -8.828125 11.574219 -12.066406 13.027344 -13.609375 C 13.71875 -14.367188 14.324219 -14.191406 14.144531 -13.207031 C 13.675781 -10.816406 12.828125 -7.53125 12.445312 -6.054688 Z M 3.976562 -1.117188 C 3.0625 -1.117188 2.859375 -2.011719 3.152344 -2.949219 C 3.710938 -4.691406 5.183594 -5.429688 7.285156 -5.363281 C 6.234375 -2.949219 5.476562 -1.140625 3.976562 -1.117188 Z M 3.976562 -1.117188 "/></g></g></g><g fill="#260101" fill-opacity="1"><g transform="translate(30.451893, 57.629844)"><g><path d="M 2.191406 0.222656 C 4.378906 0.179688 6.054688 -1.832031 7.238281 -4.714844 C 7.375 -5.027344 6.679688 -5.40625 6.570312 -5.160156 C 5.808594 -3.261719 4.15625 -1.074219 2.59375 -1.09375 C 1.363281 -1.117188 1.320312 -2.703125 1.789062 -4.894531 C 1.988281 -5.855469 2.324219 -7.082031 2.679688 -8.3125 L 5.003906 -8.3125 C 5.273438 -8.378906 5.519531 -9.273438 5.140625 -9.496094 L 2.996094 -9.496094 C 3.554688 -11.261719 4.113281 -12.960938 4.601562 -14.257812 C 4.691406 -14.75 3.128906 -15.0625 2.90625 -14.636719 C 2.414062 -13.386719 1.699219 -11.394531 1.117188 -9.496094 L 0.15625 -9.496094 C -0.15625 -9.339844 -0.359375 -8.535156 0.0429688 -8.3125 L 0.78125 -8.3125 C -0.179688 -4.691406 -1.453125 0.269531 2.191406 0.222656 Z M 2.191406 0.222656 "/></g></g></g><g fill="#260101" fill-opacity="1"><g transform="translate(36.954478, 57.629844)"><g><path d="M 5.296875 -9.453125 C 3.039062 -9.585938 0.78125 -7.886719 0 -5.074219 C -0.738281 -2.480469 0.335938 0.0429688 3.484375 0.222656 C 5.25 0.3125 8.246094 -0.179688 10.078125 -4.738281 C 10.191406 -5.027344 9.496094 -5.40625 9.40625 -5.160156 C 8 -1.789062 5.429688 -0.847656 3.777344 -1.09375 C 2.234375 -1.320312 1.476562 -2.480469 1.71875 -4.042969 C 4.355469 -3.308594 6.503906 -4.089844 7.375 -5.832031 C 8.179688 -7.375 7.574219 -9.339844 5.296875 -9.453125 Z M 5.003906 -8.179688 C 6.167969 -8.179688 6.144531 -7.082031 5.675781 -6.191406 C 5.09375 -5.074219 3.753906 -4.648438 1.898438 -5.003906 C 2.367188 -6.726562 3.820312 -8.199219 5.003906 -8.179688 Z M 5.003906 -8.179688 "/></g></g></g><g fill="#260101" fill-opacity="1"><g transform="translate(46.294965, 57.629844)"><g><path d="M 4.089844 -14.90625 C 2.59375 -13.808594 1.296875 -10.769531 0.492188 -7.53125 C -0.492188 -3.621094 -0.714844 -0.132812 2.054688 0.199219 C 4.917969 0.582031 6.367188 -1.988281 7.621094 -4.738281 C 7.777344 -5.050781 7.039062 -5.386719 6.949219 -5.160156 C 6.257812 -3.574219 4.671875 -0.847656 2.703125 -1.074219 C 1.339844 -1.207031 1.296875 -3.128906 1.789062 -5.429688 C 4.445312 -6.835938 6.167969 -8.984375 7.015625 -11.261719 C 8.289062 -14.660156 6.101562 -16.402344 4.089844 -14.90625 Z M 5.476562 -14.011719 C 6.144531 -13.964844 5.875 -12.46875 5.027344 -10.570312 C 4.378906 -9.140625 3.328125 -7.796875 2.078125 -6.816406 C 2.503906 -8.445312 3.105469 -10.078125 3.464844 -11.015625 C 4.15625 -12.804688 4.828125 -14.054688 5.476562 -14.011719 Z M 5.476562 -14.011719 "/></g></g></g><g fill="#260101" fill-opacity="1"><g transform="translate(53.19977, 57.629844)"><g><path d="M 2.59375 -10.835938 C 3.21875 -10.835938 3.730469 -11.238281 3.796875 -11.910156 C 3.84375 -12.558594 3.417969 -12.960938 2.816406 -12.984375 C 2.210938 -12.984375 1.699219 -12.582031 1.632812 -11.910156 C 1.5625 -11.261719 2.011719 -10.835938 2.59375 -10.835938 Z M 0.894531 0.199219 C 3.0625 0.199219 4.738281 -2.660156 5.632812 -4.714844 C 5.765625 -5.050781 5.050781 -5.40625 4.9375 -5.140625 C 4.179688 -3.21875 2.613281 -1.09375 1.476562 -1.050781 C 0.871094 -1.027344 0.984375 -1.71875 1.183594 -2.636719 C 1.585938 -4.335938 1.921875 -5.453125 2.882812 -8.871094 C 2.859375 -9.316406 1.40625 -9.632812 1.160156 -9.09375 C 0.3125 -6.054688 -0.132812 -4.515625 -0.625 -2.4375 C -1.003906 -0.757812 -0.648438 0.222656 0.894531 0.199219 Z M 0.894531 0.199219 "/></g></g></g><g fill="#260101" fill-opacity="1"><g transform="translate(58.093469, 57.629844)"><g><path d="M 5.296875 -9.453125 C 3.039062 -9.585938 0.78125 -7.886719 0 -5.074219 C -0.738281 -2.480469 0.335938 0.0429688 3.484375 0.222656 C 5.25 0.3125 8.246094 -0.179688 10.078125 -4.738281 C 10.191406 -5.027344 9.496094 -5.40625 9.40625 -5.160156 C 8 -1.789062 5.429688 -0.847656 3.777344 -1.09375 C 2.234375 -1.320312 1.476562 -2.480469 1.71875 -4.042969 C 4.355469 -3.308594 6.503906 -4.089844 7.375 -5.832031 C 8.179688 -7.375 7.574219 -9.339844 5.296875 -9.453125 Z M 5.003906 -8.179688 C 6.167969 -8.179688 6.144531 -7.082031 5.675781 -6.191406 C 5.09375 -5.074219 3.753906 -4.648438 1.898438 -5.003906 C 2.367188 -6.726562 3.820312 -8.199219 5.003906 -8.179688 Z M 5.003906 -8.179688 "/></g></g></g><g fill="#260101" fill-opacity="1"><g transform="translate(67.433957, 57.629844)"><g><path d="M 0.359375 -3.910156 C 1.273438 -5.832031 1.742188 -7.328125 2.121094 -8.78125 C 2.660156 -8.15625 3.6875 -7.285156 3.128906 -6.480469 C 2.191406 -5.140625 1.25 -3.664062 1.273438 -2.234375 C 1.273438 -0.894531 2.035156 0.15625 3.621094 0.199219 C 5.945312 0.269531 7.6875 -1.742188 8.960938 -4.738281 C 9.074219 -5.003906 8.378906 -5.386719 8.269531 -5.160156 C 7.0625 -2.277344 5.363281 -1.074219 4.199219 -1.117188 C 3.484375 -1.117188 3.171875 -1.632812 3.171875 -2.347656 C 3.171875 -3.554688 4.042969 -4.894531 4.984375 -6.054688 C 5.921875 -7.238281 3.867188 -8.738281 2.726562 -10.011719 C 3.464844 -12.984375 -0.378906 -11.953125 1.476562 -9.386719 C 0.960938 -7.441406 0.582031 -6.277344 -0.335938 -4.269531 C -0.492188 -4.042969 0.246094 -3.6875 0.359375 -3.910156 Z M 0.359375 -3.910156 "/></g></g></g><g fill="#260101" fill-opacity="1"><g transform="translate(75.65716, 57.629844)"><g/></g></g><g fill="#260101" fill-opacity="1"><g transform="translate(79.902835, 57.629844)"><g><path d="M 5.453125 -16.625 C 5.429688 -17.09375 4.601562 -16.9375 4.601562 -16.625 C 4.558594 -15.574219 4.625 -14.703125 4.9375 -13.945312 C 3.597656 -12.089844 4.179688 -9.25 6.480469 -8.46875 C 4.179688 -8.3125 2.101562 -6.457031 1.898438 -3.886719 C 1.652344 -1.476562 3.621094 0.132812 5.964844 0.199219 C 8.558594 0.269531 11.015625 -0.917969 12.558594 -4.738281 C 12.671875 -5.050781 11.976562 -5.386719 11.867188 -5.160156 C 10.503906 -2.054688 8.445312 -1.117188 6.414062 -1.160156 C 4.847656 -1.183594 3.621094 -2.234375 3.820312 -3.957031 C 4.066406 -6.75 6.972656 -7.664062 8.828125 -7.507812 C 9.25 -7.53125 9.429688 -8.582031 9.027344 -8.714844 C 6.816406 -8.960938 5.542969 -10.816406 6.054688 -12.335938 C 6.75 -11.507812 7.84375 -11.039062 8.984375 -10.949219 C 10.835938 -10.816406 11.867188 -11.820312 11.933594 -13.070312 C 12.042969 -15.730469 7.84375 -16.378906 5.71875 -14.613281 C 5.496094 -15.195312 5.429688 -15.933594 5.453125 -16.625 Z M 6.613281 -13.429688 C 7.664062 -14.660156 10.234375 -14.523438 10.234375 -13.140625 C 10.210938 -12.601562 9.789062 -12.179688 8.914062 -12.246094 C 8 -12.289062 7.21875 -12.714844 6.613281 -13.429688 Z M 6.613281 -13.429688 "/></g></g></g><g fill="#260101" fill-opacity="1"><g transform="translate(91.723689, 57.629844)"><g><path d="M 4.089844 -14.90625 C 2.59375 -13.808594 1.296875 -10.769531 0.492188 -7.53125 C -0.492188 -3.621094 -0.714844 -0.132812 2.054688 0.199219 C 4.917969 0.582031 6.367188 -1.988281 7.621094 -4.738281 C 7.777344 -5.050781 7.039062 -5.386719 6.949219 -5.160156 C 6.257812 -3.574219 4.671875 -0.847656 2.703125 -1.074219 C 1.339844 -1.207031 1.296875 -3.128906 1.789062 -5.429688 C 4.445312 -6.835938 6.167969 -8.984375 7.015625 -11.261719 C 8.289062 -14.660156 6.101562 -16.402344 4.089844 -14.90625 Z M 5.476562 -14.011719 C 6.144531 -13.964844 5.875 -12.46875 5.027344 -10.570312 C 4.378906 -9.140625 3.328125 -7.796875 2.078125 -6.816406 C 2.503906 -8.445312 3.105469 -10.078125 3.464844 -11.015625 C 4.15625 -12.804688 4.828125 -14.054688 5.476562 -14.011719 Z M 5.476562 -14.011719 "/></g></g></g><g fill="#260101" fill-opacity="1"><g transform="translate(98.628494, 57.629844)"><g><path d="M 2.59375 -10.835938 C 3.21875 -10.835938 3.730469 -11.238281 3.796875 -11.910156 C 3.84375 -12.558594 3.417969 -12.960938 2.816406 -12.984375 C 2.210938 -12.984375 1.699219 -12.582031 1.632812 -11.910156 C 1.5625 -11.261719 2.011719 -10.835938 2.59375 -10.835938 Z M 0.894531 0.199219 C 3.0625 0.199219 4.738281 -2.660156 5.632812 -4.714844 C 5.765625 -5.050781 5.050781 -5.40625 4.9375 -5.140625 C 4.179688 -3.21875 2.613281 -1.09375 1.476562 -1.050781 C 0.871094 -1.027344 0.984375 -1.71875 1.183594 -2.636719 C 1.585938 -4.335938 1.921875 -5.453125 2.882812 -8.871094 C 2.859375 -9.316406 1.40625 -9.632812 1.160156 -9.09375 C 0.3125 -6.054688 -0.132812 -4.515625 -0.625 -2.4375 C -1.003906 -0.757812 -0.648438 0.222656 0.894531 0.199219 Z M 0.894531 0.199219 "/></g></g></g><g fill="#260101" fill-opacity="1"><g transform="translate(103.522193, 57.629844)"><g><path d="M 3.082031 -10.011719 C 3.621094 -13.09375 0.246094 -11.820312 1.789062 -9.675781 C 1.117188 -7.574219 0.558594 -6.300781 -0.359375 -4.269531 C -0.445312 -4.023438 0.222656 -3.664062 0.335938 -3.910156 C 1.160156 -5.632812 1.789062 -6.859375 2.457031 -8.871094 C 3.285156 -7.6875 4.894531 -7.308594 6.121094 -7.464844 C 4.78125 -5.476562 3.417969 -3.640625 1.585938 -1.765625 C -0.9375 -0.894531 0.714844 1.320312 2.570312 -0.3125 C 4.132812 -0.558594 4.425781 0.289062 6.101562 0.246094 C 7.976562 0.199219 9.875 -1.898438 11.039062 -4.738281 C 11.171875 -5.027344 10.480469 -5.386719 10.367188 -5.140625 C 9.316406 -2.59375 7.753906 -1.140625 6.433594 -1.074219 C 5.183594 -1.027344 4.757812 -1.71875 3.597656 -1.542969 C 5.5625 -3.484375 6.816406 -5.585938 8.355469 -7.664062 C 8.984375 -8.378906 8.246094 -9.207031 6.90625 -8.738281 C 5.363281 -8.445312 3.6875 -8.960938 3.082031 -10.011719 Z M 3.082031 -10.011719 "/></g></g></g><g fill="#260101" fill-opacity="1"><g transform="translate(113.845884, 57.629844)"><g><path d="M 5.296875 -9.453125 C 3.039062 -9.585938 0.78125 -7.886719 0 -5.074219 C -0.738281 -2.480469 0.335938 0.0429688 3.484375 0.222656 C 5.25 0.3125 8.246094 -0.179688 10.078125 -4.738281 C 10.191406 -5.027344 9.496094 -5.40625 9.40625 -5.160156 C 8 -1.789062 5.429688 -0.847656 3.777344 -1.09375 C 2.234375 -1.320312 1.476562 -2.480469 1.71875 -4.042969 C 4.355469 -3.308594 6.503906 -4.089844 7.375 -5.832031 C 8.179688 -7.375 7.574219 -9.339844 5.296875 -9.453125 Z M 5.003906 -8.179688 C 6.167969 -8.179688 6.144531 -7.082031 5.675781 -6.191406 C 5.09375 -5.074219 3.753906 -4.648438 1.898438 -5.003906 C 2.367188 -6.726562 3.820312 -8.199219 5.003906 -8.179688 Z M 5.003906 -8.179688 "/></g></g></g><g fill="#260101" fill-opacity="1"><g transform="translate(123.186371, 57.629844)"><g><path d="M 6.613281 -9.074219 C 6.191406 -7.507812 5.742188 -5.832031 5.25 -4.425781 C 4.46875 -2.257812 2.90625 -1.117188 1.988281 -1.117188 C 1.074219 -1.140625 1.207031 -2.234375 1.453125 -3.375 C 1.898438 -5.339844 2.523438 -7.53125 2.839844 -8.847656 C 2.90625 -9.363281 1.296875 -9.585938 1.117188 -9.003906 C 0.625 -7.039062 -0.179688 -4.828125 -0.535156 -2.480469 C -0.804688 -0.894531 -0.132812 0.132812 1.207031 0.179688 C 2.546875 0.269531 4 -0.445312 5.316406 -2.660156 C 5.003906 -1.453125 5.363281 0.0429688 6.636719 0.0429688 C 8.960938 0.0664062 10.480469 -3.328125 11.152344 -4.738281 C 11.285156 -5.027344 10.59375 -5.40625 10.480469 -5.140625 C 9.652344 -3.082031 8.246094 -1.160156 7.261719 -1.207031 C 5.988281 -1.230469 7.730469 -6.882812 8.355469 -8.78125 C 8.378906 -9.363281 6.816406 -9.5625 6.613281 -9.074219 Z M 6.613281 -9.074219 "/></g></g></g><g fill="#260101" fill-opacity="1"><g transform="translate(133.621794, 57.629844)"><g/></g></g><g fill="#260101" fill-opacity="1"><g transform="translate(137.867469, 57.629844)"><g><path d="M 22.992188 1.878906 C 23.863281 2.121094 24.558594 0.847656 24.066406 0.535156 C 21.675781 -0.78125 23.464844 -5.117188 24.601562 -9.40625 C 25.070312 -11.082031 26.792969 -15.53125 23.285156 -15.574219 C 21.273438 -15.597656 19.417969 -13.542969 18.167969 -11.710938 C 18.589844 -13.742188 18.324219 -15.550781 16.109375 -15.574219 C 14.257812 -15.574219 12.289062 -13.453125 10.972656 -11.53125 C 11.308594 -12.671875 11.621094 -13.808594 11.933594 -14.949219 C 12 -15.507812 10.59375 -15.886719 10.300781 -15.148438 C 7.554688 -11.84375 3.171875 -12.492188 2.503906 -9.496094 C 2.210938 -8.222656 2.90625 -6.679688 5.003906 -6.613281 C 5.585938 -6.570312 5.699219 -7.640625 5.273438 -7.710938 C 4.269531 -7.867188 4.179688 -8.582031 4.335938 -9.316406 C 4.714844 -11.039062 7.621094 -11.105469 9.742188 -13.339844 C 9.25 -11.710938 8.625 -9.496094 7.84375 -6.679688 C 7.195312 -4.402344 6.324219 -1.585938 5.855469 -0.246094 C 5.808594 0.335938 7.375 0.359375 7.753906 -0.269531 C 8.113281 -1.207031 9.542969 -6.300781 10.121094 -8.246094 C 11.550781 -10.769531 13.964844 -14.144531 15.464844 -14.144531 C 16.871094 -14.144531 16.492188 -12.269531 16.089844 -10.75 C 15.375 -8.269531 14.367188 -3.730469 13.207031 -0.199219 C 13.117188 0.378906 14.792969 0.359375 15.0625 -0.199219 C 15.6875 -1.808594 16.625 -6.078125 17.472656 -8.871094 C 18.949219 -11.328125 21.160156 -14.121094 22.546875 -14.144531 C 24.246094 -14.167969 23.328125 -11.507812 22.835938 -9.875 C 21.160156 -4.535156 19.820312 0.492188 22.992188 1.878906 Z M 22.992188 1.878906 "/></g></g></g><g fill="#260101" fill-opacity="1"><g transform="translate(164.168298, 57.629844)"><g><path d="M 4.894531 -9.40625 C 2.277344 -8.960938 -0.0234375 -6.191406 -0.492188 -3.507812 C -0.894531 -1.25 0.0234375 0.246094 1.765625 0.199219 C 3.464844 0.15625 4.425781 -1.25 5.273438 -2.660156 C 4.9375 -0.984375 5.609375 0.0429688 6.613281 0.0429688 C 8.691406 0.0429688 10.300781 -2.347656 11.375 -4.738281 C 11.507812 -5.050781 10.769531 -5.386719 10.679688 -5.140625 C 9.808594 -2.949219 8.246094 -1.207031 7.328125 -1.207031 C 6.792969 -1.207031 6.703125 -1.742188 6.882812 -2.769531 C 7.105469 -4.023438 7.621094 -5.742188 7.886719 -6.726562 C 7.910156 -7.171875 6.503906 -7.574219 6.257812 -7.0625 C 5.429688 -3.507812 2.816406 -0.199219 1.699219 -1.339844 C 1.09375 -1.964844 1.273438 -3.796875 2.101562 -5.316406 C 2.859375 -6.792969 4.066406 -7.910156 5.316406 -8.132812 C 6.277344 -8.3125 7.484375 -8 8.425781 -7.285156 C 8.738281 -7.039062 9.5625 -7.933594 9.339844 -8.222656 C 8.15625 -9.429688 6.277344 -9.652344 4.894531 -9.40625 Z M 4.894531 -9.40625 "/></g></g></g><g fill="#260101" fill-opacity="1"><g transform="translate(174.804818, 57.629844)"><g><path d="M 6.167969 -9.496094 C 4.648438 -9.519531 3.0625 -7.84375 2.257812 -6.726562 L 2.816406 -8.828125 C 2.792969 -9.453125 1.320312 -9.632812 1.074219 -9.09375 C 0.199219 -5.652344 -0.425781 -3.464844 -1.183594 -0.46875 C -1.25 0.222656 0.535156 0.179688 0.691406 -0.246094 C 1.140625 -2.234375 1.296875 -2.996094 1.921875 -5.09375 C 2.882812 -6.59375 4.425781 -8.023438 5.386719 -8.023438 C 6.234375 -8.023438 6.078125 -7.0625 5.898438 -6.367188 C 5.609375 -5.160156 4.960938 -2.636719 4.871094 -1.855469 C 4.691406 -0.558594 5.183594 0.222656 6.546875 0.222656 C 8.535156 0.199219 10.144531 -2.679688 11.039062 -4.738281 C 11.171875 -5.050781 10.480469 -5.40625 10.367188 -5.160156 C 9.472656 -2.949219 8.023438 -1.050781 7.0625 -1.050781 C 6.433594 -1.050781 6.660156 -2.054688 6.835938 -2.859375 C 7.082031 -3.976562 7.554688 -5.160156 7.796875 -6.257812 C 8.246094 -8.089844 7.867188 -9.472656 6.167969 -9.496094 Z M 6.167969 -9.496094 "/></g></g></g><g fill="#260101" fill-opacity="1"><g transform="translate(185.128509, 57.629844)"><g><path d="M 5.207031 -9.496094 C 2.613281 -9.40625 0.3125 -7.152344 -0.199219 -4.15625 C -0.78125 -0.917969 0.894531 0.199219 2.769531 0.199219 C 4.222656 0.199219 5.40625 -0.402344 6.347656 -1.429688 C 8 -1.003906 9.855469 -1.476562 11.238281 -4.738281 C 11.375 -5.050781 10.660156 -5.386719 10.546875 -5.160156 C 9.496094 -2.523438 8.179688 -2.101562 7.039062 -2.210938 C 8.847656 -5.207031 9.050781 -9.609375 5.207031 -9.496094 Z M 5.027344 -8.179688 C 7.015625 -8.289062 6.703125 -5.476562 5.675781 -3.285156 C 5.140625 -3.507812 4.515625 -2.75 4.984375 -2.101562 C 4.445312 -1.496094 3.753906 -1.09375 3.0625 -1.09375 C 1.609375 -1.09375 1.476562 -2.660156 1.699219 -4.089844 C 1.988281 -5.855469 3.417969 -8.089844 5.027344 -8.179688 Z M 5.027344 -8.179688 "/></g></g></g><g fill="#260101" fill-opacity="1"><g transform="translate(195.630964, 57.629844)"><g><path d="M 5.296875 -9.453125 C 3.039062 -9.585938 0.78125 -7.886719 0 -5.074219 C -0.738281 -2.480469 0.335938 0.0429688 3.484375 0.222656 C 5.25 0.3125 8.246094 -0.179688 10.078125 -4.738281 C 10.191406 -5.027344 9.496094 -5.40625 9.40625 -5.160156 C 8 -1.789062 5.429688 -0.847656 3.777344 -1.09375 C 2.234375 -1.320312 1.476562 -2.480469 1.71875 -4.042969 C 4.355469 -3.308594 6.503906 -4.089844 7.375 -5.832031 C 8.179688 -7.375 7.574219 -9.339844 5.296875 -9.453125 Z M 5.003906 -8.179688 C 6.167969 -8.179688 6.144531 -7.082031 5.675781 -6.191406 C 5.09375 -5.074219 3.753906 -4.648438 1.898438 -5.003906 C 2.367188 -6.726562 3.820312 -8.199219 5.003906 -8.179688 Z M 5.003906 -8.179688 "/></g></g></g><g fill="#260101" fill-opacity="1"><g transform="translate(204.971452, 57.629844)"><g><path d="M 4.089844 -14.90625 C 2.59375 -13.808594 1.296875 -10.769531 0.492188 -7.53125 C -0.492188 -3.621094 -0.714844 -0.132812 2.054688 0.199219 C 4.917969 0.582031 6.367188 -1.988281 7.621094 -4.738281 C 7.777344 -5.050781 7.039062 -5.386719 6.949219 -5.160156 C 6.257812 -3.574219 4.671875 -0.847656 2.703125 -1.074219 C 1.339844 -1.207031 1.296875 -3.128906 1.789062 -5.429688 C 4.445312 -6.835938 6.167969 -8.984375 7.015625 -11.261719 C 8.289062 -14.660156 6.101562 -16.402344 4.089844 -14.90625 Z M 5.476562 -14.011719 C 6.144531 -13.964844 5.875 -12.46875 5.027344 -10.570312 C 4.378906 -9.140625 3.328125 -7.796875 2.078125 -6.816406 C 2.503906 -8.445312 3.105469 -10.078125 3.464844 -11.015625 C 4.15625 -12.804688 4.828125 -14.054688 5.476562 -14.011719 Z M 5.476562 -14.011719 "/></g></g></g></svg>